<svg xmlns:xlink="http://www.w3.org/1999/xlink" xmlns="http://www.w3.org/2000/svg" id="b" width="85.626" height="95.267" viewBox="0 0 85.626 95.267"><defs><style>.d{fill:#eb3500;}</style></defs><g id="c"><g><path class="d" d="M.389,69.475l9.456-4.885c.183-.094,.401-.09,.58,.012l32.457,18.487c.187,.107,.417,.106,.604-.001l32.094-18.467c.194-.112,.434-.108,.624,.011l8.567,5.327c.389,.242,.381,.81-.014,1.041l-41.267,24.184c-.189,.111-.423,.111-.612,.001L.363,70.542c-.416-.241-.401-.846,.026-1.066Z"/><path class="d" d="M.329,47.112l9.504-5.357c.189-.106,.419-.104,.606,.005l31.768,18.634c.189,.111,.422,.111,.612,.002l32.268-18.637c.188-.109,.304-.309,.304-.527v-8.501c0-.471-.512-.763-.917-.524l-30.985,18.27c-.189,.112-.424,.112-.614,.002L.303,25.804c-.403-.233-.405-.814-.004-1.05L42.211,.084c.187-.11,.418-.112,.607-.006l25.334,14.296c.396,.223,.416,.786,.037,1.036l-8.75,5.794c-.195,.129-.447,.135-.647,.015l-15.961-9.528c-.195-.117-.44-.114-.633,.006l-20.982,13.058c-.386,.24-.381,.804,.009,1.038l20.982,12.581c.189,.113,.424,.116,.615,.006l32.275-18.477c.183-.105,.407-.107,.592-.007l9.618,5.212c.196,.106,.318,.311,.318,.535v21.645c0,.214-.112,.412-.296,.522l-41.838,25.015c-.19,.113-.426,.115-.617,.004L.323,48.168c-.407-.236-.403-.825,.006-1.056Z"/></g></g></svg>